<?xml version="1.0" standalone="no"?>
<!DOCTYPE svg PUBLIC "-//W3C//DTD SVG 20010904//EN"
 "http://www.w3.org/TR/2001/REC-SVG-20010904/DTD/svg10.dtd">
<svg version="1.0" xmlns="http://www.w3.org/2000/svg"
 width="200.000000pt" height="200.000000pt" viewBox="0 0 200.000000 200.000000"
 preserveAspectRatio="xMidYMid meet">
<metadata>
Created by potrace 1.11, written by Peter Selinger 2001-2013
</metadata>
<g transform="translate(0.000000,200.000000) scale(0.100000,-0.100000)"
fill="#000000" stroke="none">
<path d="M348 1884 c-13 -13 -19 -14 -36 -3 -16 10 -23 10 -35 0 -12 -10 -19
-10 -35 0 -16 10 -23 10 -35 0 -12 -10 -20 -10 -36 1 -17 11 -24 9 -46 -12
-23 -22 -24 -25 -8 -42 15 -17 15 -19 -1 -37 -15 -16 -15 -19 -1 -31 14 -11
14 -15 1 -35 -14 -21 -14 -25 0 -35 13 -11 13 -16 0 -35 -13 -20 -13 -24 2
-38 14 -15 14 -18 -2 -36 -16 -17 -16 -20 0 -35 15 -15 15 -18 0 -35 -14 -16
-14 -19 1 -34 14 -13 14 -19 3 -32 -10 -12 -10 -21 -2 -40 7 -15 8 -26 2 -30
-14 -8 -12 -43 1 -47 8 -3 8 -10 -2 -26 -10 -16 -11 -26 -3 -40 8 -12 8 -22 0
-35 -8 -12 -8 -22 1 -36 8 -13 9 -21 1 -29 -8 -8 -8 -18 -1 -35 8 -16 8 -29 1
-42 -8 -13 -8 -24 0 -36 8 -12 7 -22 -3 -35 -11 -16 -11 -22 2 -36 15 -16 15
-20 0 -36 -15 -17 -15 -19 0 -35 16 -15 16 -18 0 -35 -15 -17 -15 -19 0 -35
16 -15 16 -18 0 -35 -15 -17 -15 -19 0 -35 16 -15 16 -18 0 -35 -15 -17 -15
-19 0 -35 16 -15 16 -18 0 -35 -15 -17 -15 -19 0 -35 15 -15 15 -18 1 -34 -14
-15 -15 -21 -3 -37 10 -13 11 -23 3 -35 -7 -12 -8 -23 0 -36 7 -13 6 -24 -1
-37 -9 -13 -9 -23 0 -37 9 -15 9 -23 -1 -37 -11 -15 -11 -20 0 -31 11 -11 11
-18 1 -33 -9 -15 -9 -24 0 -39 9 -14 9 -23 -3 -39 -12 -17 -12 -21 1 -32 11
-9 12 -17 2 -37 -10 -22 -8 -28 12 -44 18 -15 26 -16 41 -7 14 9 22 9 34 -1
13 -11 19 -11 31 -1 12 10 22 10 38 3 15 -7 29 -8 41 -1 11 6 21 6 30 -1 14
-12 46 -5 46 10 0 5 10 3 23 -6 20 -13 25 -13 44 0 20 14 23 14 31 0 7 -14 13
-14 35 -4 21 9 30 9 41 0 11 -10 19 -9 34 0 16 10 23 10 36 0 13 -11 19 -11
32 0 13 10 19 10 36 0 16 -10 23 -10 37 3 15 14 19 14 34 -1 14 -14 18 -14 32
-3 13 11 21 11 36 2 15 -9 23 -9 38 0 15 9 23 9 34 -1 12 -10 19 -10 35 0 16
10 23 10 35 0 12 -10 19 -10 35 0 16 10 23 10 35 0 12 -10 19 -10 35 0 16 10
23 10 36 0 11 -9 20 -10 35 -1 14 7 27 7 39 1 11 -6 24 -6 35 0 11 6 23 6 35
0 11 -6 24 -6 35 0 11 6 23 7 34 1 11 -6 25 -6 40 1 16 7 26 7 37 -2 11 -10
19 -9 34 0 16 10 23 10 35 0 12 -10 19 -10 35 0 16 10 23 10 35 0 12 -10 19
-10 35 0 16 10 23 10 36 0 14 -12 19 -11 34 2 17 15 19 15 35 0 15 -16 18 -16
35 0 16 15 20 15 34 1 13 -13 19 -14 36 -3 17 11 23 10 37 -1 15 -13 20 -11
41 13 20 23 22 31 12 47 -9 14 -9 22 1 34 12 14 11 19 -2 34 -15 16 -15 20 -1
34 13 13 14 19 3 36 -10 17 -10 23 0 36 12 14 11 19 -2 34 -15 17 -15 19 0 35
16 15 16 18 0 35 -15 17 -15 19 0 35 16 15 16 18 0 35 -15 17 -15 19 0 35 15
15 15 18 1 34 -14 16 -15 21 -2 37 10 15 11 23 2 33 -8 10 -8 20 -1 36 7 15 7
29 1 40 -5 11 -5 23 0 34 6 11 6 25 -1 40 -7 16 -7 26 1 36 9 10 8 18 -2 32
-11 16 -11 21 0 32 10 11 11 19 2 38 -8 19 -8 28 2 40 11 13 10 19 -4 34 -14
16 -15 20 -2 30 12 10 13 18 4 36 -8 19 -8 28 2 40 10 13 10 19 -3 33 -15 16
-15 20 -1 34 13 13 14 19 3 36 -10 17 -10 23 0 36 12 14 11 19 -2 34 -15 17
-15 19 0 35 16 15 16 18 0 35 -15 17 -15 19 0 35 13 13 15 19 5 29 -15 15 -16
45 -1 50 8 3 8 10 -2 26 -11 17 -11 24 -1 34 16 16 15 23 -4 42 -14 14 -14 18
0 31 12 13 13 21 4 41 -9 20 -9 27 1 33 9 6 9 13 0 34 -9 21 -9 30 1 42 10 13
10 18 -3 33 -13 15 -13 19 0 30 12 12 12 17 0 35 -17 26 -46 34 -58 16 -6 -10
-11 -10 -24 1 -12 10 -21 10 -39 2 -17 -8 -27 -7 -35 1 -9 9 -17 8 -32 -1 -16
-10 -24 -11 -35 -1 -11 9 -21 9 -42 0 -18 -9 -28 -9 -30 -2 -5 14 -39 14 -47
1 -3 -6 -15 -5 -31 2 -18 8 -28 8 -35 1 -8 -8 -18 -8 -35 -1 -17 8 -27 8 -38
-1 -11 -10 -19 -9 -34 0 -16 10 -23 10 -36 0 -14 -12 -19 -11 -34 2 -16 15
-20 15 -34 1 -13 -13 -19 -14 -36 -3 -17 10 -23 10 -36 0 -14 -12 -19 -11 -34
2 -17 15 -19 15 -35 0 -13 -14 -19 -14 -32 -3 -12 10 -21 10 -39 2 -17 -7 -27
-7 -35 1 -7 7 -17 7 -33 0 -16 -7 -28 -7 -40 1 -13 8 -23 8 -38 -1 -16 -10
-22 -10 -32 1 -11 12 -16 12 -30 -1 -16 -15 -20 -15 -35 0 -16 13 -21 14 -37
2 -13 -10 -24 -11 -37 -4 -13 6 -25 6 -37 0 -13 -7 -22 -7 -30 1 -8 8 -18 8
-35 1 -16 -8 -29 -8 -42 -1 -13 8 -24 7 -38 -1 -16 -11 -22 -10 -35 3 -14 14
-18 14 -33 0 -14 -13 -21 -13 -37 -3 -17 10 -23 10 -36 0 -14 -12 -19 -11 -34
2 -16 15 -20 15 -34 1z"/>
</g>
</svg>
